# xmcd CD database file
#
# Track frame offsets:
#	150
#	18425
#	36105
#	51345
#	67845
#	80222
#	91690
#	105082
#	119250
#	133175
#	148030
#	166495
#	180817
#	194727
#
# Disc length: 2788 seconds
#
# Revision: 2
# Processed by: cddbd v1.5.2PL0 Copyright (c) Steve Scherf et al.
# Submitted via: CDex 1.51
#
DISCID=b80ae20e
DTITLE=張明敏 - 我是中國人
DYEAR=1989
DGENRE=Country
TTITLE0=我是中國人
TTITLE1=黃河願
TTITLE2=爸爸的草鞋
TTITLE3=鄉間的小路
TTITLE4=故鄉
TTITLE5=漫步風雨中
TTITLE6=年輕人的心聲
TTITLE7=長城瑤
TTITLE8=中華民族
TTITLE9=龍的傳人
TTITLE10=蒙塵的巨龍
TTITLE11=又見柳葉青
TTITLE12=故鄉的風
TTITLE13=冬戀
EXTD=YEAR: 1989
EXTT0=
EXTT1=
EXTT2=
EXTT3=
EXTT4=
EXTT5=
EXTT6=
EXTT7=
EXTT8=
EXTT9=
EXTT10=
EXTT11=
EXTT12=
EXTT13=
PLAYORDER=
